<svg version="1.2" xmlns="http://www.w3.org/2000/svg" viewBox="2404 0 196 62" width="196" height="62">
	<title>logo-svg-svg</title>
	<defs>
		<clipPath clipPathUnits="userSpaceOnUse" id="cp1">
			<path d="m2460.16 28.21c0 11.86-9.61 21.47-21.47 21.47-7.96 0-14.91-4.33-18.61-10.77 3.33 4.62 8.75 7.63 14.88 7.63 10.12 0 18.33-8.2 18.33-18.33 0-10.12-8.21-18.32-18.33-18.32-6.13 0-11.55 3.01-14.88 7.63 3.7-6.44 10.65-10.77 18.61-10.77 11.86 0 21.47 9.61 21.47 21.46z"/>
		</clipPath>
		<linearGradient id="g1" x2="1" gradientUnits="userSpaceOnUse" gradientTransform="matrix(55.825,0,0,59.795,2417.145,6.751)">
			<stop offset="0" stop-color="#021b8c"/>
			<stop offset="1" stop-color="#15aff7"/>
		</linearGradient>
		<clipPath clipPathUnits="userSpaceOnUse" id="cp2">
			<path d="m2425.78 11.74c1.69-0.94 3.53-1.63 5.45-2.01 7.23-2.29 15.34-0.18 20.51 5.79 6.31 7.28 6.31 18.11 0 25.39-5.17 5.97-13.28 8.08-20.51 5.79-1.92-0.38-3.76-1.07-5.46-2.01 3.63 2.84 8.15 4.46 12.92 4.46 11.56 0 20.94-9.37 20.94-20.94 0-11.56-9.38-20.93-20.94-20.93-4.77 0-9.29 1.62-12.92 4.46z"/>
		</clipPath>
		<linearGradient id="g2" x2="1" gradientUnits="userSpaceOnUse" gradientTransform="matrix(55.825,0,0,69.06,2417.145,7.284)">
			<stop offset="0" stop-color="#021b8c"/>
			<stop offset="1" stop-color="#15aff7"/>
		</linearGradient>
		<clipPath clipPathUnits="userSpaceOnUse" id="cp3">
			<path d="m2437.25 42.89c-8.1 0-14.68-6.57-14.68-14.68 0-8.1 6.58-14.67 14.68-14.67 4.36 0 8.28 1.9 10.97 4.92-2.99-4.06-7.82-6.7-13.26-6.7-9.09 0-16.46 7.36-16.46 16.45 0 9.1 7.37 16.46 16.46 16.46 5.44 0 10.27-2.64 13.26-6.7-2.69 3.02-6.6 4.92-10.97 4.92zm2.69-17.64v-6.79h-5.94v6.79h-6.78v5.93h6.78v6.79h5.94v-6.78h6.78v-5.94z"/>
		</clipPath>
		<linearGradient id="g3" x2="1" gradientUnits="userSpaceOnUse" gradientTransform="matrix(46.071,0,0,51.031,2414.09,11.757)">
			<stop offset="0" stop-color="#045304"/>
			<stop offset="1" stop-color="#73c710"/>
		</linearGradient>
		<clipPath clipPathUnits="userSpaceOnUse" id="cp4">
			<path d="m2446.35 30.82h-6.78v6.78h-5.2v-6.78h-6.78v-5.2h6.78v-6.79h5.2v6.79h6.78zm-11.39 13.49c-8.89 0-16.09-7.2-16.09-16.09 0-8.89 7.2-16.09 16.09-16.09 2.96 0 5.8 0.8 8.26 2.27-1.86-0.8-3.89-1.23-5.97-1.23-8.31 0-15.04 6.74-15.04 15.05 0 8.3 6.73 15.04 15.04 15.04 2.08 0 4.11-0.42 5.97-1.23-2.46 1.47-5.3 2.28-8.26 2.28z"/>
		</clipPath>
		<linearGradient id="g4" x2="1" gradientUnits="userSpaceOnUse" gradientTransform="matrix(43.932,0,0,51.447,2410.768,12.124)">
			<stop offset="0" stop-color="#045304"/>
			<stop offset="1" stop-color="#73c710"/>
		</linearGradient>
	</defs>
	<style>
		.s0 { fill: url(#g1) } 
		.s1 { fill: url(#g2) } 
		.s2 { fill: url(#g3) } 
		.s3 { fill: url(#g4) } 
		.s4 { fill: #191a1c } 
	</style>
	<g id="_Artboards_">
	</g>
	<g id="Layer 1">
		<g id="Clip-Path: Clip-Path: &lt;Clip Group&gt;" clip-path="url(#cp1)">
			<g id="Clip-Path: &lt;Clip Group&gt;">
				<g id="&lt;Clip Group&gt;">
					<path id="&lt;Path&gt;" fill-rule="evenodd" class="s0" d="m2420.1 6.8h40.1v42.9h-40.1z"/>
				</g>
			</g>
		</g>
		<g id="Clip-Path: Clip-Path: &lt;Clip Group&gt;" clip-path="url(#cp2)">
			<g id="Clip-Path: &lt;Clip Group&gt;">
				<g id="&lt;Clip Group&gt;">
					<path id="&lt;Path&gt;" fill-rule="evenodd" class="s1" d="m2425.8 7.3h33.8v41.9h-33.8z"/>
				</g>
			</g>
		</g>
		<g id="Clip-Path: Clip-Path: &lt;Clip Group&gt;" clip-path="url(#cp3)">
			<g id="Clip-Path: &lt;Clip Group&gt;">
				<g id="&lt;Clip Group&gt;">
					<path id="&lt;Path&gt;" fill-rule="evenodd" class="s2" d="m2418.5 11.8l29.7-0.1v33h-29.7z"/>
				</g>
			</g>
		</g>
		<g id="Clip-Path: Clip-Path: &lt;Clip Group&gt;" clip-path="url(#cp4)">
			<g id="Clip-Path: &lt;Clip Group&gt;">
				<g id="&lt;Clip Group&gt;">
					<path id="&lt;Path&gt;" fill-rule="evenodd" class="s3" d="m2418.9 12.1h27.4v32.2h-27.4z"/>
				</g>
			</g>
		</g>
		<path id="&lt;Compound Path&gt;" fill-rule="evenodd" class="s4" d="m2585.2 36.5h-8.8q0.1-5.8 0.1-11.7h8.7v2.1h-6.6v2.7h6.4v2.1h-6.4v2.6h6.6zm-10.7 0h-2.7l-3.4-3.9h-2.1v3.9h-2.2v-11.7q2.8 0 5.6 0c2.7 0 4.2 1.8 4.2 3.9 0 1.6-0.8 3.2-3 3.7l3.6 4zm-8.2-9.7v3.7h3.4c1.4 0 2-0.9 2-1.8 0-1-0.6-1.9-2-1.9zm-7.8 7.4h-6.1l-1 2.3h-2.4l5.3-11.8h2.4l5.2 11.8h-2.4zm-3-7.1l-2.2 5h4.3zm-7.1 7.8c-1.2 1.2-2.7 1.7-4.4 1.7-4.4 0-6.2-3-6.2-6 0-3.1 2-6.2 6.2-6.2 1.6 0 3.1 0.6 4.3 1.8l-1.5 1.4c-0.8-0.7-1.8-1.1-2.8-1.1-2.8 0-4.1 2.1-4 4.1 0 1.9 1.1 3.9 4 3.9 1 0 2.2-0.4 2.9-1.1zm-15.7 1.5v-4.8h-5.7v4.8h-2.2v-11.7h2.2v4.9h5.7v-4.9h2.2v11.7zm-16.3-9.8h-3.8v-2c3.4 0 6.3 0 9.7 0v2h-3.7v9.8h-2.2zm-10-2v9.6h6v2.1h-8.2v-11.7zm-7.9 9.5h-6.1l-1.1 2.2h-2.3l5.2-11.7h2.4l5.3 11.7h-2.4zm-3.1-7.1l-2.2 5h4.4zm-8.1 9.3h-8.8q0-5.9 0-11.7h8.8v2.1h-6.6v2.7h6.4v2.1h-6.4v2.6h6.6zm-14.1 0v-4.7h-5.8v4.7h-2.2v-11.7h2.2v4.9h5.8v-4.9h2.2v11.7z"/>
	</g>
</svg>